<?xml version="1.0" encoding="UTF-8" standalone="no"?>
<!DOCTYPE svg PUBLIC "-//W3C//DTD SVG 1.1//EN"
 "http://www.w3.org/Graphics/SVG/1.1/DTD/svg11.dtd">
<!-- Generated by graphviz version 2.42.4 (0)
 -->
<!-- Title: DefenseLayers Pages: 1 -->
<svg width="372pt" height="853pt"
 viewBox="0.00 0.00 371.81 853.22" xmlns="http://www.w3.org/2000/svg" xmlns:xlink="http://www.w3.org/1999/xlink">
<g id="graph0" class="graph" transform="scale(1 1) rotate(0) translate(4 849.22)">
<title>DefenseLayers</title>
<polygon fill="white" stroke="transparent" points="-4,4 -4,-849.22 367.81,-849.22 367.81,4 -4,4"/>
<text text-anchor="middle" x="181.91" y="-825.22" font-family="Times,serif" font-size="20.00">8&#45;Layer Defense&#45;in&#45;Depth Architecture</text>
<g id="clust1" class="cluster">
<title>cluster_supply</title>
<polygon fill="lightblue" stroke="lightblue" points="37,-371.61 37,-807.22 233,-807.22 233,-371.61 37,-371.61"/>
<text text-anchor="middle" x="135" y="-787.22" font-family="Times,serif" font-size="20.00">Supply Chain Security</text>
</g>
<g id="clust2" class="cluster">
<title>cluster_runtime</title>
<polygon fill="lightgreen" stroke="lightgreen" points="8,-96.74 8,-330.74 262,-330.74 262,-96.74 8,-96.74"/>
<text text-anchor="middle" x="135" y="-310.74" font-family="Times,serif" font-size="20.00">Runtime Security</text>
</g>
<!-- layer1 -->
<g id="node1" class="node">
<title>layer1</title>
<polygon fill="#e3f2fd" stroke="black" points="215.5,-769.22 58.5,-769.22 58.5,-731.22 215.5,-731.22 215.5,-769.22"/>
<text text-anchor="middle" x="137" y="-754.02" font-family="Arial" font-size="14.00">Layer 1: Image Signing</text>
<text text-anchor="middle" x="137" y="-739.02" font-family="Arial" font-size="14.00">(Cosign Keyless OIDC)</text>
</g>
<!-- layer2 -->
<g id="node2" class="node">
<title>layer2</title>
<polygon fill="#bbdefb" stroke="black" points="223.5,-694.22 50.5,-694.22 50.5,-656.22 223.5,-656.22 223.5,-694.22"/>
<text text-anchor="middle" x="137" y="-679.02" font-family="Arial" font-size="14.00">Layer 2: SBOM Analysis</text>
<text text-anchor="middle" x="137" y="-664.02" font-family="Arial" font-size="14.00">(Syft &#45; 2,850 components)</text>
</g>
<!-- layer1&#45;&gt;layer2 -->
<g id="edge1" class="edge">
<title>layer1&#45;&gt;layer2</title>
<path fill="none" stroke="black" d="M137,-731.18C137,-723.1 137,-713.4 137,-704.4"/>
<polygon fill="black" stroke="black" points="140.5,-704.31 137,-694.31 133.5,-704.31 140.5,-704.31"/>
</g>
<!-- layer3 -->
<g id="node3" class="node">
<title>layer3</title>
<polygon fill="#90caf9" stroke="black" points="220,-597.35 52,-597.35 52,-559.35 220,-559.35 220,-597.35"/>
<text text-anchor="middle" x="136" y="-582.15" font-family="Arial" font-size="14.00">Layer 3: VEX Filtering</text>
<text text-anchor="middle" x="136" y="-567.15" font-family="Arial" font-size="14.00">(60&#45;70% noise reduction)</text>
</g>
<!-- layer2&#45;&gt;layer3 -->
<g id="edge2" class="edge">
<title>layer2&#45;&gt;layer3</title>
<path fill="none" stroke="black" d="M136.81,-655.93C136.66,-642.28 136.46,-623.37 136.3,-607.76"/>
<polygon fill="black" stroke="black" points="139.8,-607.55 136.19,-597.59 132.8,-607.62 139.8,-607.55"/>
</g>
<!-- attack2 -->
<g id="node10" class="node">
<title>attack2</title>
<ellipse fill="#ffcdd2" stroke="black" cx="295" cy="-578.35" rx="54.39" ry="26.74"/>
<text text-anchor="middle" x="295" y="-582.15" font-family="Arial" font-size="14.00">Log4Shell</text>
<text text-anchor="middle" x="295" y="-567.15" font-family="Arial" font-size="14.00">Response</text>
</g>
<!-- layer2&#45;&gt;attack2 -->
<g id="edge9" class="edge">
<title>layer2&#45;&gt;attack2</title>
<path fill="none" stroke="red" stroke-width="2" d="M167.09,-656.15C191.22,-641.66 225.39,-621.14 252.35,-604.96"/>
<polygon fill="red" stroke="red" stroke-width="2" points="254.42,-607.8 261.19,-599.65 250.81,-601.8 254.42,-607.8"/>
<text text-anchor="middle" x="250" y="-627.02" font-family="Times,serif" font-size="14.00">96% faster</text>
</g>
<!-- layer4 -->
<g id="node4" class="node">
<title>layer4</title>
<polygon fill="#64b5f6" stroke="black" points="224.5,-514.48 45.5,-514.48 45.5,-476.48 224.5,-476.48 224.5,-514.48"/>
<text text-anchor="middle" x="135" y="-499.28" font-family="Arial" font-size="14.00">Layer 4: SLSA Provenance</text>
<text text-anchor="middle" x="135" y="-484.28" font-family="Arial" font-size="14.00">(Build integrity)</text>
</g>
<!-- layer3&#45;&gt;layer4 -->
<g id="edge3" class="edge">
<title>layer3&#45;&gt;layer4</title>
<path fill="none" stroke="black" d="M135.77,-559C135.65,-548.97 135.49,-536.33 135.35,-525.04"/>
<polygon fill="black" stroke="black" points="138.85,-524.71 135.23,-514.76 131.85,-524.8 138.85,-524.71"/>
</g>
<!-- layer5 -->
<g id="node5" class="node">
<title>layer5</title>
<polygon fill="#42a5f5" stroke="black" points="224.5,-417.61 45.5,-417.61 45.5,-379.61 224.5,-379.61 224.5,-417.61"/>
<text text-anchor="middle" x="135" y="-402.41" font-family="Arial" font-size="14.00">Layer 5: Admission Control</text>
<text text-anchor="middle" x="135" y="-387.41" font-family="Arial" font-size="14.00">(Kyverno enforcement)</text>
</g>
<!-- layer4&#45;&gt;layer5 -->
<g id="edge4" class="edge">
<title>layer4&#45;&gt;layer5</title>
<path fill="none" stroke="black" d="M135,-476.19C135,-462.54 135,-443.63 135,-428.02"/>
<polygon fill="black" stroke="black" points="138.5,-427.85 135,-417.85 131.5,-427.85 138.5,-427.85"/>
</g>
<!-- attack1 -->
<g id="node9" class="node">
<title>attack1</title>
<ellipse fill="#ffcdd2" stroke="black" cx="303" cy="-398.61" rx="60.62" ry="26.74"/>
<text text-anchor="middle" x="303" y="-402.41" font-family="Arial" font-size="14.00">SolarWinds</text>
<text text-anchor="middle" x="303" y="-387.41" font-family="Arial" font-size="14.00">Breach</text>
</g>
<!-- layer4&#45;&gt;attack1 -->
<g id="edge8" class="edge">
<title>layer4&#45;&gt;attack1</title>
<path fill="none" stroke="red" stroke-width="2" d="M166.99,-476.41C192.59,-461.96 228.82,-441.5 257.45,-425.33"/>
<polygon fill="red" stroke="red" stroke-width="2" points="259.46,-428.21 266.45,-420.25 256.02,-422.12 259.46,-428.21"/>
<text text-anchor="middle" x="247.5" y="-447.28" font-family="Times,serif" font-size="14.00">Prevents</text>
</g>
<!-- layer6 -->
<g id="node6" class="node">
<title>layer6</title>
<polygon fill="#c8e6c9" stroke="black" points="225.5,-292.74 44.5,-292.74 44.5,-254.74 225.5,-254.74 225.5,-292.74"/>
<text text-anchor="middle" x="135" y="-277.54" font-family="Arial" font-size="14.00">Layer 6: Runtime Detection</text>
<text text-anchor="middle" x="135" y="-262.54" font-family="Arial" font-size="14.00">(Falco eBPF)</text>
</g>
<!-- layer5&#45;&gt;layer6 -->
<g id="edge7" class="edge">
<title>layer5&#45;&gt;layer6</title>
<path fill="none" stroke="black" stroke-dasharray="5,2" d="M135,-379.48C135,-359.33 135,-326.55 135,-303.02"/>
<polygon fill="black" stroke="black" points="138.5,-302.94 135,-292.94 131.5,-302.94 138.5,-302.94"/>
<text text-anchor="middle" x="169" y="-342.54" font-family="Times,serif" font-size="14.00">Deployment</text>
</g>
<!-- layer7 -->
<g id="node7" class="node">
<title>layer7</title>
<polygon fill="#a5d6a7" stroke="black" points="234.5,-217.74 35.5,-217.74 35.5,-179.74 234.5,-179.74 234.5,-217.74"/>
<text text-anchor="middle" x="135" y="-202.54" font-family="Arial" font-size="14.00">Layer 7: Secrets Management</text>
<text text-anchor="middle" x="135" y="-187.54" font-family="Arial" font-size="14.00">(External Secrets + Key Vault)</text>
</g>
<!-- layer6&#45;&gt;layer7 -->
<g id="edge5" class="edge">
<title>layer6&#45;&gt;layer7</title>
<path fill="none" stroke="black" d="M135,-254.7C135,-246.62 135,-236.92 135,-227.92"/>
<polygon fill="black" stroke="black" points="138.5,-227.83 135,-217.83 131.5,-227.83 138.5,-227.83"/>
</g>
<!-- layer8 -->
<g id="node8" class="node">
<title>layer8</title>
<polygon fill="#81c784" stroke="black" points="254,-142.74 16,-142.74 16,-104.74 254,-104.74 254,-142.74"/>
<text text-anchor="middle" x="135" y="-127.54" font-family="Arial" font-size="14.00">Layer 8: Network Microsegmentation</text>
<text text-anchor="middle" x="135" y="-112.54" font-family="Arial" font-size="14.00">(Calico zero&#45;trust)</text>
</g>
<!-- layer7&#45;&gt;layer8 -->
<g id="edge6" class="edge">
<title>layer7&#45;&gt;layer8</title>
<path fill="none" stroke="black" d="M135,-179.7C135,-171.62 135,-161.92 135,-152.92"/>
<polygon fill="black" stroke="black" points="138.5,-152.83 135,-142.83 131.5,-152.83 138.5,-152.83"/>
</g>
<!-- attack3 -->
<g id="node11" class="node">
<title>attack3</title>
<ellipse fill="#ffcdd2" stroke="black" cx="135" cy="-26.87" rx="62.87" ry="26.74"/>
<text text-anchor="middle" x="135" y="-30.67" font-family="Arial" font-size="14.00">Capital One</text>
<text text-anchor="middle" x="135" y="-15.67" font-family="Arial" font-size="14.00">Breach</text>
</g>
<!-- layer8&#45;&gt;attack3 -->
<g id="edge10" class="edge">
<title>layer8&#45;&gt;attack3</title>
<path fill="none" stroke="red" stroke-width="2" d="M135,-104.45C135,-93.03 135,-77.95 135,-64.18"/>
<polygon fill="red" stroke="red" stroke-width="2" points="138.5,-64 135,-54 131.5,-64 138.5,-64"/>
<text text-anchor="middle" x="158.5" y="-75.54" font-family="Times,serif" font-size="14.00">Prevents</text>
</g>
</g>
</svg>
