<?xml version="1.0" encoding="UTF-8" standalone="no"?>
<!DOCTYPE svg PUBLIC "-//W3C//DTD SVG 1.1//EN"
 "http://www.w3.org/Graphics/SVG/1.1/DTD/svg11.dtd">
<!-- Generated by graphviz version 2.42.4 (0)
 -->
<!-- Title: NetworkZeroTrust Pages: 1 -->
<svg width="633pt" height="568pt"
 viewBox="0.00 0.00 632.51 568.03" xmlns="http://www.w3.org/2000/svg" xmlns:xlink="http://www.w3.org/1999/xlink">
<g id="graph0" class="graph" transform="scale(1 1) rotate(0) translate(4 564.03)">
<title>NetworkZeroTrust</title>
<polygon fill="white" stroke="transparent" points="-4,4 -4,-564.03 628.51,-564.03 628.51,4 -4,4"/>
<text text-anchor="middle" x="312.26" y="-541.63" font-family="Times,serif" font-size="18.00">Network Microsegmentation &#45; Zero Trust Architecture</text>
<g id="clust1" class="cluster">
<title>cluster_app</title>
<polygon fill="lightblue" stroke="lightblue" points="217.51,-8 217.51,-310.03 498.51,-310.03 498.51,-8 217.51,-8"/>
<text text-anchor="middle" x="358.01" y="-291.63" font-family="Times,serif" font-size="18.00">Application Namespace (demo&#45;app)</text>
</g>
<g id="clust2" class="cluster">
<title>cluster_infra</title>
<polygon fill="lightgreen" stroke="lightgreen" points="230.51,-343.03 230.51,-425.03 616.51,-425.03 616.51,-343.03 230.51,-343.03"/>
<text text-anchor="middle" x="423.51" y="-406.63" font-family="Times,serif" font-size="18.00">Infrastructure (Global Policies)</text>
</g>
<g id="clust3" class="cluster">
<title>cluster_legend</title>
<polygon fill="white" stroke="white" points="215.51,-444.03 215.51,-524.03 525.51,-524.03 525.51,-444.03 215.51,-444.03"/>
<text text-anchor="middle" x="370.51" y="-505.63" font-family="Times,serif" font-size="18.00">Legend</text>
</g>
<!-- internet -->
<g id="node1" class="node">
<title>internet</title>
<polygon fill="#fff9c4" stroke="black" points="190.51,-488.03 128.51,-488.03 128.51,-452.03 190.51,-452.03 190.51,-488.03"/>
<text text-anchor="middle" x="159.51" y="-466.33" font-family="Arial" font-size="14.00">Internet</text>
</g>
<!-- ingress -->
<g id="node2" class="node">
<title>ingress</title>
<polygon fill="#e3f2fd" stroke="black" points="221.01,-389.03 98.01,-389.03 98.01,-351.03 221.01,-351.03 221.01,-389.03"/>
<text text-anchor="middle" x="159.51" y="-373.83" font-family="Arial" font-size="14.00">Ingress Controller</text>
<text text-anchor="middle" x="159.51" y="-358.83" font-family="Arial" font-size="14.00">(External Traffic)</text>
</g>
<!-- internet&#45;&gt;ingress -->
<g id="edge1" class="edge">
<title>internet&#45;&gt;ingress</title>
<path fill="none" stroke="black" d="M159.51,-451.96C159.51,-437.56 159.51,-416.65 159.51,-399.7"/>
<polygon fill="black" stroke="black" points="163.01,-399.23 159.51,-389.23 156.01,-399.23 163.01,-399.23"/>
</g>
<!-- frontend -->
<g id="node3" class="node">
<title>frontend</title>
<polygon fill="#bbdefb" stroke="black" points="331.01,-274.03 226.01,-274.03 226.01,-236.03 331.01,-236.03 331.01,-274.03"/>
<text text-anchor="middle" x="278.51" y="-258.83" font-family="Arial" font-size="14.00">Frontend Pods</text>
<text text-anchor="middle" x="278.51" y="-243.83" font-family="Arial" font-size="14.00">(Web Tier)</text>
</g>
<!-- ingress&#45;&gt;frontend -->
<g id="edge5" class="edge">
<title>ingress&#45;&gt;frontend</title>
<path fill="none" stroke="black" d="M178.63,-350.87C198.5,-332.01 229.73,-302.35 251.98,-281.22"/>
<polygon fill="black" stroke="black" points="254.6,-283.56 259.44,-274.14 249.78,-278.49 254.6,-283.56"/>
</g>
<!-- backend -->
<g id="node4" class="node">
<title>backend</title>
<polygon fill="#90caf9" stroke="black" points="471.51,-170.03 367.51,-170.03 367.51,-132.03 471.51,-132.03 471.51,-170.03"/>
<text text-anchor="middle" x="419.51" y="-154.83" font-family="Arial" font-size="14.00">Backend Pods</text>
<text text-anchor="middle" x="419.51" y="-139.83" font-family="Arial" font-size="14.00">(API Tier)</text>
</g>
<!-- frontend&#45;&gt;backend -->
<g id="edge2" class="edge">
<title>frontend&#45;&gt;backend</title>
<path fill="none" stroke="green" stroke-width="2" d="M274.31,-235.98C272.04,-221.4 271.6,-201.2 282.51,-188.03 303.27,-162.95 322.03,-178.31 353.51,-170.03 354.77,-169.7 356.04,-169.36 357.33,-169.02"/>
<polygon fill="green" stroke="green" stroke-width="2" points="358.54,-172.32 367.3,-166.36 356.73,-165.56 358.54,-172.32"/>
<text text-anchor="middle" x="323.51" y="-206.83" font-family="Times,serif" font-size="14.00">✓ ALLOWED</text>
<text text-anchor="middle" x="323.51" y="-191.83" font-family="Times,serif" font-size="14.00">(HTTP/80)</text>
</g>
<!-- database -->
<g id="node5" class="node">
<title>database</title>
<polygon fill="#64b5f6" stroke="black" points="362.51,-54 260.51,-54 260.51,-16 362.51,-16 362.51,-54"/>
<text text-anchor="middle" x="311.51" y="-38.8" font-family="Arial" font-size="14.00">Database Pod</text>
<text text-anchor="middle" x="311.51" y="-23.8" font-family="Arial" font-size="14.00">(Data Tier)</text>
</g>
<!-- frontend&#45;&gt;database -->
<g id="edge4" class="edge">
<title>frontend&#45;&gt;database</title>
<path fill="none" stroke="red" stroke-width="2" d="M272.26,-235.62C264.98,-211.54 254.98,-168.17 263.51,-132.03 269.37,-107.2 282.69,-81.47 293.81,-62.9"/>
<polygon fill="red" stroke="red" stroke-width="2" points="296.94,-64.49 299.21,-54.14 290.98,-60.81 296.94,-64.49"/>
<text text-anchor="middle" x="311.01" y="-154.83" font-family="Times,serif" font-size="14.00">✗ BLOCKED</text>
<text text-anchor="middle" x="311.01" y="-139.83" font-family="Times,serif" font-size="14.00">(Network Policy)</text>
</g>
<!-- blocked_egress -->
<g id="node9" class="node">
<title>blocked_egress</title>
<polygon fill="#ffcdd2" stroke="black" points="209.03,-35 156.77,-66.05 52.25,-66.05 -0.01,-35 52.25,-3.95 156.77,-3.95 209.03,-35"/>
<text text-anchor="middle" x="104.51" y="-38.8" font-family="Arial" font-size="14.00">Unauthorized</text>
<text text-anchor="middle" x="104.51" y="-23.8" font-family="Arial" font-size="14.00">Egress BLOCKED</text>
</g>
<!-- frontend&#45;&gt;blocked_egress -->
<g id="edge11" class="edge">
<title>frontend&#45;&gt;blocked_egress</title>
<path fill="none" stroke="red" d="M253.63,-235.93C232.97,-220.09 203.64,-195.66 182.51,-170.03 158.43,-140.82 137.27,-103.27 123.09,-75.34"/>
<polygon fill="red" stroke="red" points="126.16,-73.65 118.55,-66.27 119.9,-76.78 126.16,-73.65"/>
<text text-anchor="middle" x="219.01" y="-147.33" font-family="Times,serif" font-size="14.00">✗ No Internet</text>
</g>
<!-- backend&#45;&gt;database -->
<g id="edge3" class="edge">
<title>backend&#45;&gt;database</title>
<path fill="none" stroke="green" stroke-width="2" d="M402.4,-131.96C384.49,-113.05 356.22,-83.21 335.97,-61.82"/>
<polygon fill="green" stroke="green" stroke-width="2" points="338.32,-59.21 328.9,-54.36 333.24,-64.03 338.32,-59.21"/>
<text text-anchor="middle" x="425.51" y="-102.83" font-family="Times,serif" font-size="14.00">✓ ALLOWED</text>
<text text-anchor="middle" x="425.51" y="-87.83" font-family="Times,serif" font-size="14.00">(TCP/5432)</text>
</g>
<!-- keyvault -->
<g id="node8" class="node">
<title>keyvault</title>
<polygon fill="#81c784" stroke="black" points="608.01,-389.03 495.01,-389.03 495.01,-351.03 608.01,-351.03 608.01,-389.03"/>
<text text-anchor="middle" x="551.51" y="-373.83" font-family="Arial" font-size="14.00">Azure Key Vault</text>
<text text-anchor="middle" x="551.51" y="-358.83" font-family="Arial" font-size="14.00">(Secrets)</text>
</g>
<!-- backend&#45;&gt;keyvault -->
<g id="edge10" class="edge">
<title>backend&#45;&gt;keyvault</title>
<path fill="none" stroke="purple" d="M432.7,-170.04C444.81,-186.82 463.01,-212.7 477.51,-236.03 499.72,-271.76 522.93,-314.5 537.3,-341.7"/>
<polygon fill="purple" stroke="purple" points="534.25,-343.41 542,-350.64 540.45,-340.16 534.25,-343.41"/>
<text text-anchor="middle" x="556.01" y="-251.33" font-family="Times,serif" font-size="14.00">Fetch Secrets</text>
</g>
<!-- backend&#45;&gt;blocked_egress -->
<g id="edge12" class="edge">
<title>backend&#45;&gt;blocked_egress</title>
<path fill="none" stroke="red" d="M367.39,-135.31C362.71,-134.14 358.03,-133.03 353.51,-132.03 307.28,-121.79 293.26,-129.51 248.51,-114.03 217.61,-103.33 185.41,-86.5 159.32,-71.2"/>
<polygon fill="red" stroke="red" points="161.1,-68.19 150.72,-66.09 157.52,-74.21 161.1,-68.19"/>
<text text-anchor="middle" x="301.51" y="-95.33" font-family="Times,serif" font-size="14.00">✗ Unauthorized IPs</text>
</g>
<!-- monitoring -->
<g id="node6" class="node">
<title>monitoring</title>
<polygon fill="#c8e6c9" stroke="black" points="476.51,-389.03 386.51,-389.03 386.51,-351.03 476.51,-351.03 476.51,-389.03"/>
<text text-anchor="middle" x="431.51" y="-373.83" font-family="Arial" font-size="14.00">Prometheus</text>
<text text-anchor="middle" x="431.51" y="-358.83" font-family="Arial" font-size="14.00">(Monitoring)</text>
</g>
<!-- monitoring&#45;&gt;frontend -->
<g id="edge6" class="edge">
<title>monitoring&#45;&gt;frontend</title>
<path fill="none" stroke="black" stroke-dasharray="5,2" d="M406.93,-350.87C380.94,-331.68 339.82,-301.31 311.14,-280.12"/>
<polygon fill="black" stroke="black" points="313.16,-277.26 303.03,-274.14 309,-282.89 313.16,-277.26"/>
<text text-anchor="middle" x="403.01" y="-321.83" font-family="Times,serif" font-size="14.00">Metrics</text>
</g>
<!-- monitoring&#45;&gt;backend -->
<g id="edge7" class="edge">
<title>monitoring&#45;&gt;backend</title>
<path fill="none" stroke="black" stroke-dasharray="5,2" d="M431.59,-350.94C431.58,-325.33 431.17,-277.05 428.51,-236.03 427.31,-217.42 425.08,-196.57 423.14,-180.3"/>
<polygon fill="black" stroke="black" points="426.61,-179.84 421.92,-170.34 419.66,-180.69 426.61,-179.84"/>
<text text-anchor="middle" x="452.01" y="-251.33" font-family="Times,serif" font-size="14.00">Metrics</text>
</g>
<!-- falco -->
<g id="node7" class="node">
<title>falco</title>
<polygon fill="#a5d6a7" stroke="black" points="368.01,-389.03 239.01,-389.03 239.01,-351.03 368.01,-351.03 368.01,-389.03"/>
<text text-anchor="middle" x="303.51" y="-373.83" font-family="Arial" font-size="14.00">Falco</text>
<text text-anchor="middle" x="303.51" y="-358.83" font-family="Arial" font-size="14.00">(Runtime Security)</text>
</g>
<!-- falco&#45;&gt;frontend -->
<g id="edge8" class="edge">
<title>falco&#45;&gt;frontend</title>
<path fill="none" stroke="black" stroke-dasharray="5,2" d="M268.17,-350.91C261.86,-346 256.15,-340.05 252.51,-333.03 244.29,-317.15 250.57,-298.13 259.02,-282.96"/>
<polygon fill="black" stroke="black" points="262.22,-284.44 264.45,-274.08 256.25,-280.79 262.22,-284.44"/>
<text text-anchor="middle" x="275.51" y="-321.83" font-family="Times,serif" font-size="14.00">Monitor</text>
</g>
<!-- falco&#45;&gt;backend -->
<g id="edge9" class="edge">
<title>falco&#45;&gt;backend</title>
<path fill="none" stroke="black" stroke-dasharray="5,2" d="M345.73,-350.95C352.99,-346.11 359.72,-340.18 364.51,-333.03 388.76,-296.84 365.69,-277.66 378.51,-236.03 384.66,-216.06 394.99,-194.93 403.75,-178.86"/>
<polygon fill="black" stroke="black" points="406.86,-180.47 408.67,-170.03 400.75,-177.06 406.86,-180.47"/>
<text text-anchor="middle" x="401.51" y="-251.33" font-family="Times,serif" font-size="14.00">Monitor</text>
</g>
<!-- allowed -->
<g id="node10" class="node">
<title>allowed</title>
<polygon fill="lightgreen" stroke="black" points="511.01,-488.03 380.01,-488.03 380.01,-452.03 517.01,-452.03 517.01,-482.03 511.01,-488.03"/>
<polyline fill="none" stroke="black" points="511.01,-488.03 511.01,-482.03 "/>
<polyline fill="none" stroke="black" points="517.01,-482.03 511.01,-482.03 "/>
<text text-anchor="middle" x="448.51" y="-466.33" font-family="Arial" font-size="14.00">✓ Allowed by Policy</text>
</g>
<!-- blocked -->
<g id="node11" class="node">
<title>blocked</title>
<polygon fill="#ffcdd2" stroke="black" points="355.51,-488.03 223.51,-488.03 223.51,-452.03 361.51,-452.03 361.51,-482.03 355.51,-488.03"/>
<polyline fill="none" stroke="black" points="355.51,-488.03 355.51,-482.03 "/>
<polyline fill="none" stroke="black" points="361.51,-482.03 355.51,-482.03 "/>
<text text-anchor="middle" x="292.51" y="-466.33" font-family="Arial" font-size="14.00">✗ Blocked by Policy</text>
</g>
</g>
</svg>
